<svg viewBox="0 0 240 240" xmlns="http://www.w3.org/2000/svg">
  <defs>
    <style>
      .cn-circle { stroke: #4a4a4a; stroke-width: 14; fill: #f5f5f5; }
      .cn-head { fill: #c85a4a; }
      .cn-body { fill: #f0f0f0; stroke: #000; stroke-width: 2; }
      .cn-outline { stroke: #000; fill: none; stroke-width: 2.5; stroke-linecap: round; }
      .cn-neon { stroke: #ff8c42; fill: none; stroke-width: 2.5; stroke-linecap: round; }
    </style>
  </defs>
  <circle cx="120" cy="120" r="108" class="cn-circle"/>
  <ellipse cx="120" cy="185" rx="40" ry="10" fill="#2a2a2a"/>
  <line x1="60" y1="190" x2="180" y2="190" stroke="#000" stroke-width="1.5"/>
  <rect x="97" y="95" width="46" height="40" rx="2" class="cn-body"/>
  <circle cx="120" cy="65" r="18" class="cn-head"/>
  <path d="M 105 58 Q 100 40 120 32 Q 140 40 135 58" class="cn-head"/>
  <circle cx="113" cy="63" r="2" fill="#000"/>
  <circle cx="127" cy="63" r="2" fill="#000"/>
  <line x1="97" y1="100" x2="50" y2="80" stroke="#e8b8a0" stroke-width="4" stroke-linecap="round"/>
  <circle cx="47" cy="78" r="3.5" fill="#e8b8a0"/>
  <line x1="143" y1="95" x2="165" y2="60" stroke="#e8b8a0" stroke-width="4" stroke-linecap="round"/>
  <circle cx="168" cy="58" r="3.5" fill="#e8b8a0"/>
  <line x1="104" y1="135" x2="68" y2="48" stroke="#000" stroke-width="5" stroke-linecap="round"/>
  <ellipse cx="63" cy="43" rx="8" ry="6" fill="#000"/>
  <line x1="136" y1="135" x2="136" y2="180" stroke="#000" stroke-width="5" stroke-linecap="round"/>
  <ellipse cx="136" cy="184" rx="6" ry="4" fill="#000"/>
  <rect x="97" y="133" width="46" height="2" fill="#000"/>
  <path d="M 160 175 Q 185 145 195 105" class="cn-neon"/>
  <path d="M 148 188 Q 165 175 175 155" class="cn-neon"/>
  <polygon points="120,208 122,202 128,200 122,198 123,192 120,196 117,192 118,198 112,200 118,202" fill="#ff8c42"/>
</svg>